<svg width="29" height="29" viewBox="0 0 29 29" fill="none" xmlns="http://www.w3.org/2000/svg">
<path d="M14.5 1.73371C7.40763 1.73371 1.73371 7.40763 1.73371 14.5C1.73371 21.5924 7.40763 27.2663 14.5 27.2663C21.5924 27.2663 27.2663 21.5924 27.2663 14.5C27.2663 7.40763 21.5924 1.73371 14.5 1.73371ZM14.5 29C6.46198 29 0 22.5381 0 14.5C0 6.46198 6.46198 0 14.5 0C22.5381 0 29 6.46198 29 14.5C29 22.5381 22.5381 29 14.5 29Z" fill="#C2DBB8"/>
<path d="M15.6017 11.3478V10.0869C15.6017 9.45646 16.0745 9.29885 16.3897 9.29885H18.2811V6.46191H15.7593C12.9224 6.46191 12.2919 8.51084 12.2919 9.77171V11.1902H10.7158V13.0815V14.3424H12.2919V22.3804H15.6017V14.3424H17.9658L18.1235 13.0815L18.2811 11.1902H15.6017V11.3478Z" fill="#C2DBB8"/>
</svg>
