<svg width="1024" height="314" viewBox="0 0 1024 314" fill="none" xmlns="http://www.w3.org/2000/svg">
<rect width="1024" height="314" fill="#303335"/>
<g style="mix-blend-mode:overlay" opacity="0.1">
<mask id="mask0" mask-type="alpha" maskUnits="userSpaceOnUse" x="0" y="0" width="1024" height="314">
<rect width="1024" height="314" transform="matrix(1 0 0 -1 0 314)" fill="#F0F2F3"/>
</mask>
<g mask="url(#mask0)">
<path d="M-227.162 375.813L-267.436 362.808L-229.259 246.181L-226.742 243.245L347.159 -509.372L380.721 -483.781L-191.083 265.899L-227.162 375.813Z" fill="#F0F2F3"/>
<path d="M511.072 -446.985L279.98 323.776L320.166 335.825L551.258 -434.937L511.072 -446.985Z" fill="#F0F2F3"/>
<path d="M220.046 124.939C163.831 124.939 113.489 112.354 77.41 95.5728C8.60896 63.6894 -35.4405 21.3181 -37.1186 19.2205L-44.6699 11.6691L-29.9868 -3.43359L-22.4354 4.11782C-22.0159 4.53733 20.775 46.0696 86.2199 76.2749C149.567 105.641 259.901 122.003 363.102 71.6603L372.751 67.0456L381.98 85.9239L372.332 90.5387C321.57 115.29 268.71 124.939 220.046 124.939Z" fill="#F0F2F3"/>
<path d="M102.16 192.064L30.4229 139.205L79.5065 71.2427L96.7068 83.4087L59.7892 134.59L97.1263 162.278L143.273 94.3162L160.474 106.063L102.16 192.064Z" fill="#F0F2F3"/>
<path d="M973.083 342.25L963.854 323.372L1307.86 148.433L1478.6 194.16L1473.15 214.716L1310.38 171.087L973.083 342.25Z" fill="#F0F2F3"/>
<path d="M601.385 86.3443L551.462 59.0756L528.389 -52.9359L596.351 -117.542L610.614 -102.02L551.462 -45.3846L570.341 45.2314L597.19 59.9146L662.215 -8.88647L677.318 5.79668L601.385 86.3443Z" fill="#F0F2F3"/>
<path d="M970.566 170.669L963.435 -93.2083L1023.85 -293.319L1043.98 -287.026L984.41 -90.2716L991.962 169.83L970.566 170.669Z" fill="#F0F2F3"/>
<path d="M41.7495 1364.2L-263.241 1260.58L-530.893 920.767L-496.073 336.798C-550.611 326.31 -777.57 282.26 -804 270.933L-795.61 251.635C-775.892 260.445 -597.597 296.104 -483.068 317.919L-473.839 319.597L-509.078 914.055L-250.235 1242.54L30.4224 1337.77L92.0917 1198.07L298.495 1155.7L242.699 1045.36L261.577 1035.72L329.539 1170.38L106.775 1216.11L41.7495 1364.2Z" fill="#F0F2F3"/>
<path d="M213.161 301.002L195.323 312.037L288.904 463.303L306.742 452.267L213.161 301.002Z" fill="#F0F2F3"/>
<path d="M638.635 214.224L626.529 231.355L838.612 381.218L850.717 364.087L638.635 214.224Z" fill="#F0F2F3"/>
<path d="M1495.8 1093.61L806.531 748.345C778.843 743.73 610.197 700.939 400.018 350.222L397.501 346.026C379.042 338.475 281.294 319.177 -198.215 379.168C-228.421 382.944 -259.045 382.524 -289.251 377.49L-741.072 306.172L-735.199 269.674L-283.378 340.992C-256.528 345.187 -229.26 345.607 -202.411 342.251C392.886 267.996 421.833 311.626 431.062 325.889C433.16 329.246 434.419 332.602 434.838 335.538C649.212 691.29 812.824 711.846 814.502 711.846L817.859 712.266L1513 1060.05L1495.8 1093.61Z" fill="#F0F2F3"/>
<path d="M861.906 269.674L690.743 82.5692L689.484 78.7935C639.981 -65.1013 535.521 -156.976 379.041 -193.894C261.156 -221.582 156.696 -206.479 155.857 -206.06L152.92 -205.64L-543.9 -337.369L-546.837 -339.047C-680.663 -422.112 -751.142 -467.839 -757.435 -474.971L-770.021 -488.396L-743.171 -513.567L-731.005 -500.562C-718.839 -490.913 -603.052 -417.497 -530.475 -371.769L153.34 -242.558C172.638 -245.075 272.902 -256.402 387.431 -229.133C553.56 -190.118 669.348 -89.0139 723.046 63.6908L889.175 244.923L861.906 269.674Z" fill="#F0F2F3"/>
<path d="M545.172 1571.44L509.094 1563.47L513.289 1545.43C540.558 1425.03 617.749 1201.01 689.067 1059.21C767.517 903.148 845.548 772.678 856.455 754.638L893.373 624.168L805.274 -352.891L842.191 -356.247L931.129 627.524L890.856 769.741L889.597 771.839C888.758 773.097 805.693 909.441 722.209 1075.99C653.408 1213.17 575.797 1438.03 549.787 1553.82L545.172 1571.44Z" fill="#F0F2F3"/>
<path d="M983.991 195.838L768.358 167.73L772.973 131.232L969.308 156.823C1047.34 73.3384 1154.73 18.3815 1280.17 -1.75537C1377.5 -17.2776 1450.5 -7.20916 1453.43 -6.78964L1471.47 -4.27251L1466.02 32.2255L1447.98 29.7085C1444.2 29.289 1165.64 -8.0482 989.864 188.286L983.991 195.838Z" fill="#F0F2F3"/>
<path d="M911.415 556.205L883.727 531.453L955.464 452.164L958.82 157.662L995.738 158.082L992.382 466.428L911.415 556.205Z" fill="#F0F2F3"/>
<path d="M759.547 731.144L850.163 250.795L886.661 257.507L810.309 661.084L910.154 606.127L927.774 638.43L759.547 731.144Z" fill="#F0F2F3"/>
<path d="M590.484 265.058C549.79 265.058 516.648 231.916 516.648 191.642C516.648 151.369 549.79 118.227 590.484 118.227C631.177 118.227 664.319 151.369 664.319 191.642C664.319 231.916 631.177 265.058 590.484 265.058ZM590.484 138.783C561.537 138.783 537.624 162.276 537.624 191.223C537.624 220.17 561.117 243.663 590.484 243.663C619.85 243.663 643.343 220.17 643.343 191.223C643.343 162.276 619.85 138.783 590.484 138.783Z" fill="#F0F2F3"/>
<path opacity="0.3" d="M827.267 100.08L749.236 -35.0688L712.906 -14.0929L790.937 121.056L827.267 100.08Z" fill="#F0F2F3"/>
<path opacity="0.3" d="M-76.9321 297.952L66.832 281.22L59.4606 217.881L-84.3036 234.612L-76.9321 297.952Z" fill="#F0F2F3"/>
<path opacity="0.3" d="M135.927 277.289H247.1V213.522H135.927V277.289Z" fill="#F0F2F3"/>
<path opacity="0.3" d="M694.042 387.278L646.427 304.808L569.77 349.068L617.385 431.537L694.042 387.278Z" fill="#F0F2F3"/>
</g>
</g>
</svg>
