<svg width="29" height="29" viewBox="0 0 29 29" fill="none" xmlns="http://www.w3.org/2000/svg">
<path d="M14.5 1.73371C7.40758 1.73371 1.73366 7.40763 1.73366 14.5C1.73366 21.5924 7.40758 27.2663 14.5 27.2663C21.5924 27.2663 27.2663 21.5924 27.2663 14.5C27.2663 7.40763 21.5924 1.73371 14.5 1.73371ZM14.5 29C6.46193 29 0 22.5381 0 14.5C0 6.46198 6.46193 0 14.5 0C22.538 0 29 6.46198 29 14.5C29 22.5381 22.538 29 14.5 29Z" fill="#C2DBB8"/>
<path d="M9.92913 8.35304C8.98347 8.35304 8.35304 9.14108 8.35304 9.92913V19.0705C8.35304 20.0161 9.14108 20.6466 9.92913 20.6466H19.0704C20.0161 20.6466 20.6465 19.8585 20.6465 19.0705V9.92913C20.6465 8.98347 19.8585 8.35304 19.0704 8.35304H9.92913ZM19.0704 22.065H9.92913C8.19543 22.065 6.93457 20.6466 6.93457 19.0705V9.92913C6.93457 8.19543 8.35304 6.93457 9.92913 6.93457H19.0704C20.8041 6.93457 22.065 8.35304 22.065 9.92913V19.0705C22.065 20.8042 20.8041 22.065 19.0704 22.065Z" fill="#C2DBB8"/>
<path d="M14.5 12.2935C13.2391 12.2935 12.2935 13.2392 12.2935 14.5C12.2935 15.6033 13.2391 16.7065 14.5 16.7065C15.7609 16.7065 16.7065 15.7609 16.7065 14.5C16.7065 13.3968 15.6032 12.2935 14.5 12.2935ZM14.5 18.125C12.4511 18.125 10.875 16.5489 10.875 14.5C10.875 12.6087 12.4511 10.875 14.5 10.875C16.5489 10.875 18.125 12.4511 18.125 14.5C18.125 16.3913 16.5489 18.125 14.5 18.125Z" fill="#C2DBB8"/>
<path d="M18.5974 9.29883C19.2279 9.29883 19.7007 9.77166 19.7007 10.2445C19.7007 10.7173 19.2279 11.1902 18.5974 11.1902C17.967 11.1902 17.4941 10.7173 17.4941 10.2445C17.4941 9.77166 18.1246 9.29883 18.5974 9.29883Z" fill="#C2DBB8"/>
</svg>
