<svg width="109" height="150" viewBox="0 0 109 150" fill="none" xmlns="http://www.w3.org/2000/svg">
<rect y="74.9792" width="109" height="74.5789" fill="#C2DBB8"/>
<path d="M23.88 96.09V103H22.56V97.14H20.13V103H18.81V96.09H23.88ZM27.8395 96.09C28.7261 96.09 29.4128 96.2733 29.8995 96.64C30.3928 97.0067 30.6395 97.5567 30.6395 98.29C30.6395 99.0567 30.3928 99.6333 29.8995 100.02C29.4061 100.4 28.7495 100.59 27.9295 100.59H27.1195V103H25.7995V96.09H27.8395ZM27.8295 99.6C28.3028 99.6 28.6595 99.5033 28.8995 99.31C29.1395 99.11 29.2595 98.77 29.2595 98.29C29.2595 97.47 28.7828 97.06 27.8295 97.06H27.1195V99.6H27.8295ZM34.6577 95.94C35.2777 95.94 35.8143 96.08 36.2677 96.36C36.721 96.64 37.0677 97.05 37.3077 97.59C37.5543 98.13 37.6777 98.78 37.6777 99.54C37.6777 100.293 37.5543 100.94 37.3077 101.48C37.061 102.02 36.711 102.433 36.2577 102.72C35.8043 103.007 35.271 103.15 34.6577 103.15C34.0377 103.15 33.501 103.01 33.0477 102.73C32.5943 102.45 32.2443 102.04 31.9977 101.5C31.751 100.96 31.6277 100.31 31.6277 99.55C31.6277 98.8033 31.751 98.16 31.9977 97.62C32.2443 97.0733 32.5943 96.6567 33.0477 96.37C33.5077 96.0833 34.0443 95.94 34.6577 95.94ZM34.6577 96.95C34.1243 96.95 33.7177 97.16 33.4377 97.58C33.1577 97.9933 33.0177 98.65 33.0177 99.55C33.0177 101.277 33.5643 102.14 34.6577 102.14C35.191 102.14 35.5943 101.933 35.8677 101.52C36.1477 101.107 36.2877 100.447 36.2877 99.54C36.2877 98.64 36.1477 97.9833 35.8677 97.57C35.5943 97.1567 35.191 96.95 34.6577 96.95ZM43.4517 96.09L43.2917 97.16H40.5417V103H39.2217V96.09H43.4517ZM46.6496 96.09C47.5363 96.09 48.2229 96.2733 48.7096 96.64C49.2029 97.0067 49.4496 97.5567 49.4496 98.29C49.4496 99.0567 49.2029 99.6333 48.7096 100.02C48.2163 100.4 47.5596 100.59 46.7396 100.59H45.9296V103H44.6096V96.09H46.6496ZM46.6396 99.6C47.1129 99.6 47.4696 99.5033 47.7096 99.31C47.9496 99.11 48.0696 98.77 48.0696 98.29C48.0696 97.47 47.5929 97.06 46.6396 97.06H45.9296V99.6H46.6396ZM53.8821 103L53.4521 101.4H51.1621L50.7321 103H49.3621L51.5121 96.09H53.1421L55.2821 103H53.8821ZM51.4221 100.4H53.1821L52.3021 97.1L51.4221 100.4ZM62.9022 103H61.6122L61.4322 100.11C61.3722 99.0767 61.3422 98.2567 61.3422 97.65V97.29L60.0822 102.25H58.8322L57.4922 97.28C57.5055 97.72 57.5122 98.0533 57.5122 98.28C57.5122 98.8867 57.4922 99.51 57.4522 100.15L57.2822 103H56.0022L56.5522 96.09H58.2522L59.4822 100.93L60.6422 96.09H62.3622L62.9022 103ZM71.0245 103H69.7345L69.5545 100.11C69.4945 99.0767 69.4645 98.2567 69.4645 97.65V97.29L68.2045 102.25H66.9545L65.6145 97.28C65.6278 97.72 65.6345 98.0533 65.6345 98.28C65.6345 98.8867 65.6145 99.51 65.5745 100.15L65.4045 103H64.1245L64.6745 96.09H66.3745L67.6045 100.93L68.7645 96.09H70.4845L71.0245 103ZM76.2567 103L75.8267 101.4H73.5367L73.1067 103H71.7367L73.8867 96.09H75.5167L77.6567 103H76.2567ZM73.7967 100.4H75.5567L74.6767 97.1L73.7967 100.4ZM20.85 108.09C21.7367 108.09 22.4233 108.273 22.91 108.64C23.4033 109.007 23.65 109.557 23.65 110.29C23.65 111.057 23.4033 111.633 22.91 112.02C22.4167 112.4 21.76 112.59 20.94 112.59H20.13V115H18.81V108.09H20.85ZM20.84 111.6C21.3133 111.6 21.67 111.503 21.91 111.31C22.15 111.11 22.27 110.77 22.27 110.29C22.27 109.47 21.7933 109.06 20.84 109.06H20.13V111.6H20.84ZM28.0825 115L27.6525 113.4H25.3625L24.9325 115H23.5625L25.7125 108.09H27.3425L29.4825 115H28.0825ZM25.6225 112.4H27.3825L26.5025 109.1L25.6225 112.4ZM32.0826 115.15C31.1226 115.15 30.3526 114.83 29.7726 114.19L30.5126 113.48C30.7259 113.693 30.9526 113.853 31.1926 113.96C31.4326 114.067 31.7026 114.12 32.0026 114.12C32.4159 114.12 32.7359 114.02 32.9626 113.82C33.1959 113.62 33.3126 113.34 33.3126 112.98C33.3126 112.62 33.1959 112.343 32.9626 112.15C32.7359 111.95 32.3959 111.85 31.9426 111.85H31.2526L31.4126 110.86H31.9626C32.3226 110.86 32.6059 110.773 32.8126 110.6C33.0192 110.42 33.1226 110.177 33.1226 109.87C33.1226 109.597 33.0392 109.373 32.8726 109.2C32.7059 109.027 32.4492 108.94 32.1026 108.94C31.6026 108.94 31.1059 109.14 30.6126 109.54L29.9726 108.83C30.6192 108.237 31.3792 107.94 32.2526 107.94C32.7259 107.94 33.1292 108.02 33.4626 108.18C33.8026 108.333 34.0592 108.547 34.2326 108.82C34.4059 109.087 34.4926 109.39 34.4926 109.73C34.4926 110.143 34.3659 110.487 34.1126 110.76C33.8592 111.033 33.5026 111.22 33.0426 111.32C33.5426 111.373 33.9459 111.547 34.2526 111.84C34.5592 112.127 34.7126 112.523 34.7126 113.03C34.7126 113.45 34.5992 113.82 34.3726 114.14C34.1526 114.46 33.8426 114.71 33.4426 114.89C33.0492 115.063 32.5959 115.15 32.0826 115.15ZM39.5648 111.34C40.0382 111.427 40.4182 111.597 40.7048 111.85C40.9982 112.103 41.1448 112.49 41.1448 113.01C41.1448 113.73 40.8915 114.243 40.3848 114.55C39.8782 114.85 39.1682 115 38.2548 115H36.1748V108.09H37.9848C39.8915 108.09 40.8448 108.677 40.8448 109.85C40.8448 110.257 40.7215 110.59 40.4748 110.85C40.2282 111.103 39.9248 111.267 39.5648 111.34ZM37.4948 109.06V110.93H38.3048C38.6715 110.93 38.9615 110.85 39.1748 110.69C39.3882 110.523 39.4948 110.28 39.4948 109.96C39.4948 109.627 39.3815 109.393 39.1548 109.26C38.9348 109.127 38.5882 109.06 38.1148 109.06H37.4948ZM38.2648 114.01C38.7515 114.01 39.1215 113.937 39.3748 113.79C39.6348 113.643 39.7648 113.367 39.7648 112.96C39.7648 112.567 39.6415 112.283 39.3948 112.11C39.1548 111.937 38.8248 111.85 38.4048 111.85H37.4948V114.01H38.2648ZM47.7077 115H46.3977V112.06C46.3977 111.207 46.461 110.337 46.5877 109.45L44.2377 115H42.6077V108.09H43.9177V111.06C43.9177 111.613 43.901 112.073 43.8677 112.44C43.8343 112.807 43.7877 113.207 43.7277 113.64L46.1177 108.09H47.7077V115ZM54.0664 108.09L53.9264 109.14H52.1264V115H50.7964V109.14H48.9364V108.09H54.0664ZM60.3291 115H59.0191V112.06C59.0191 111.207 59.0825 110.337 59.2091 109.45L56.8591 115H55.2291V108.09H56.5391V111.06C56.5391 111.613 56.5225 112.073 56.4891 112.44C56.4558 112.807 56.4091 113.207 56.3491 113.64L58.7391 108.09H60.3291V115ZM66.6979 108.09V115H65.3779V112.41H64.2879L63.0579 115H61.5879L63.0779 112.17C62.2312 111.823 61.8079 111.187 61.8079 110.26C61.8079 109.553 62.0379 109.017 62.4979 108.65C62.9646 108.277 63.6512 108.09 64.5579 108.09H66.6979ZM65.3779 111.44V109.05H64.6279C64.1346 109.05 63.7746 109.153 63.5479 109.36C63.3212 109.56 63.2079 109.867 63.2079 110.28C63.2079 110.66 63.3146 110.95 63.5279 111.15C63.7479 111.343 64.0412 111.44 64.4079 111.44H65.3779ZM23.04 120.09L22.88 121.16H20.13V127H18.81V120.09H23.04ZM26.2522 119.94C26.8722 119.94 27.4089 120.08 27.8622 120.36C28.3155 120.64 28.6622 121.05 28.9022 121.59C29.1489 122.13 29.2722 122.78 29.2722 123.54C29.2722 124.293 29.1489 124.94 28.9022 125.48C28.6555 126.02 28.3055 126.433 27.8522 126.72C27.3989 127.007 26.8655 127.15 26.2522 127.15C25.6322 127.15 25.0955 127.01 24.6422 126.73C24.1889 126.45 23.8389 126.04 23.5922 125.5C23.3455 124.96 23.2222 124.31 23.2222 123.55C23.2222 122.803 23.3455 122.16 23.5922 121.62C23.8389 121.073 24.1889 120.657 24.6422 120.37C25.1022 120.083 25.6389 119.94 26.2522 119.94ZM26.2522 120.95C25.7189 120.95 25.3122 121.16 25.0322 121.58C24.7522 121.993 24.6122 122.65 24.6122 123.55C24.6122 125.277 25.1589 126.14 26.2522 126.14C26.7855 126.14 27.1889 125.933 27.4622 125.52C27.7422 125.107 27.8822 124.447 27.8822 123.54C27.8822 122.64 27.7422 121.983 27.4622 121.57C27.1889 121.157 26.7855 120.95 26.2522 120.95ZM32.8563 120.09C33.7429 120.09 34.4296 120.273 34.9163 120.64C35.4096 121.007 35.6563 121.557 35.6563 122.29C35.6563 123.057 35.4096 123.633 34.9163 124.02C34.4229 124.4 33.7663 124.59 32.9463 124.59H32.1363V127H30.8163V120.09H32.8563ZM32.8463 123.6C33.3196 123.6 33.6763 123.503 33.9163 123.31C34.1563 123.11 34.2763 122.77 34.2763 122.29C34.2763 121.47 33.7996 121.06 32.8463 121.06H32.1363V123.6H32.8463ZM39.6745 119.94C40.2945 119.94 40.8311 120.08 41.2845 120.36C41.7378 120.64 42.0845 121.05 42.3245 121.59C42.5711 122.13 42.6945 122.78 42.6945 123.54C42.6945 124.293 42.5711 124.94 42.3245 125.48C42.0778 126.02 41.7278 126.433 41.2745 126.72C40.8211 127.007 40.2878 127.15 39.6745 127.15C39.0545 127.15 38.5178 127.01 38.0645 126.73C37.6111 126.45 37.2611 126.04 37.0145 125.5C36.7678 124.96 36.6445 124.31 36.6445 123.55C36.6445 122.803 36.7678 122.16 37.0145 121.62C37.2611 121.073 37.6111 120.657 38.0645 120.37C38.5245 120.083 39.0611 119.94 39.6745 119.94ZM39.6745 120.95C39.1411 120.95 38.7345 121.16 38.4545 121.58C38.1745 121.993 38.0345 122.65 38.0345 123.55C38.0345 125.277 38.5811 126.14 39.6745 126.14C40.2078 126.14 40.6111 125.933 40.8845 125.52C41.1645 125.107 41.3045 124.447 41.3045 123.54C41.3045 122.64 41.1645 121.983 40.8845 121.57C40.6111 121.157 40.2078 120.95 39.6745 120.95ZM49.2709 125.96V128.58H48.3109L48.1409 127H44.3409L44.1709 128.58H43.2109V125.96H43.7009C43.8609 125.793 43.9875 125.583 44.0809 125.33C44.1742 125.07 44.2575 124.713 44.3309 124.26C44.4109 123.807 44.5109 123.113 44.6309 122.18L44.8909 120.09H48.6809V125.96H49.2709ZM47.3809 121.1H46.0209L45.9109 122.13C45.8175 122.997 45.7242 123.67 45.6309 124.15C45.5442 124.623 45.4342 125 45.3009 125.28C45.1742 125.553 45.0009 125.78 44.7809 125.96H47.3809V121.1ZM54.3216 127L53.8916 125.4H51.6016L51.1716 127H49.8016L51.9516 120.09H53.5816L55.7216 127H54.3216ZM51.8616 124.4H53.6216L52.7416 121.1L51.8616 124.4ZM64.6616 120.09V127H63.3416V121.14H60.9116V127H59.5916V120.09H64.6616ZM70.5911 120.09L70.4511 121.07H67.9011V123H70.1211V123.98H67.9011V126.01H70.6311V127H66.5811V120.09H70.5911ZM75.9638 127V123.91H73.5038V127H72.1838V120.09H73.5038V122.86H75.9638V120.09H77.2938V127H75.9638ZM80.7326 127.15C79.7726 127.15 79.0026 126.83 78.4226 126.19L79.1626 125.48C79.3759 125.693 79.6026 125.853 79.8426 125.96C80.0826 126.067 80.3526 126.12 80.6526 126.12C81.0659 126.12 81.3859 126.02 81.6126 125.82C81.8459 125.62 81.9626 125.34 81.9626 124.98C81.9626 124.62 81.8459 124.343 81.6126 124.15C81.3859 123.95 81.0459 123.85 80.5926 123.85H79.9026L80.0626 122.86H80.6126C80.9726 122.86 81.2559 122.773 81.4626 122.6C81.6692 122.42 81.7726 122.177 81.7726 121.87C81.7726 121.597 81.6892 121.373 81.5226 121.2C81.3559 121.027 81.0992 120.94 80.7526 120.94C80.2526 120.94 79.7559 121.14 79.2626 121.54L78.6226 120.83C79.2692 120.237 80.0292 119.94 80.9026 119.94C81.3759 119.94 81.7792 120.02 82.1126 120.18C82.4526 120.333 82.7092 120.547 82.8826 120.82C83.0559 121.087 83.1426 121.39 83.1426 121.73C83.1426 122.143 83.0159 122.487 82.7626 122.76C82.5092 123.033 82.1526 123.22 81.6926 123.32C82.1926 123.373 82.5959 123.547 82.9026 123.84C83.2092 124.127 83.3626 124.523 83.3626 125.03C83.3626 125.45 83.2492 125.82 83.0226 126.14C82.8026 126.46 82.4926 126.71 82.0926 126.89C81.6992 127.063 81.2459 127.15 80.7326 127.15ZM88.436 127L88.006 125.4H85.716L85.286 127H83.916L86.066 120.09H87.696L89.836 127H88.436ZM85.976 124.4H87.736L86.856 121.1L85.976 124.4Z" fill="#32882E"/>
<rect width="109" height="75" fill="#32882E"/>
<path d="M18.145 33.8361C18.145 37.5228 18.145 41.1553 18.145 44.842C17.1667 44.842 16.1883 44.842 15.21 44.842C15.21 40.2879 15.21 35.7337 15.21 31.1796C17.9276 31.1796 21.8954 31.1796 24.6674 31.1796C24.6674 32.1555 24.6674 32.8603 24.6674 33.8361H18.145Z" fill="white"/>
<path d="M47.4941 44.842V31.1796C49.4509 31.1796 51.4076 31.1796 53.3643 31.1796C56.5711 31.1796 58.2561 33.5651 58.2561 36.1674C58.2561 38.7156 56.5168 40.9927 53.3643 40.9927H50.4292V44.842H47.4941ZM53.3643 38.4445C54.6144 38.4445 55.4297 37.3602 55.4297 36.059C55.4297 34.812 54.6688 33.7277 53.3643 33.7277C52.3859 33.7277 51.4076 33.7277 50.3749 33.7277V38.4445H53.3643Z" fill="white"/>
<path d="M81.1946 42.3481C82.3904 42.3481 82.6078 41.7517 82.7708 40.4505L83.8579 31.1796C86.6299 31.1796 89.9998 31.1796 92.7718 31.1796V42.3481H94.2393V46.7396H91.6304V44.7878C88.6953 44.7878 86.4669 44.7878 83.5318 44.7878V46.7396H80.7598V42.3481H81.1946ZM85.6516 40.5589C85.5972 41.1553 85.3254 42.0228 84.7275 42.4023H89.8911V33.7277H86.4125L85.6516 40.5589Z" fill="white"/>
<path d="M40.8643 11.8788H41.897V25.5954H38.9619V18.2221L35.5376 22.5051H35.1572L31.7329 18.2221V25.5954H28.7979V11.933H29.8849L35.3746 18.4389L40.8643 11.8788Z" fill="white"/>
<path d="M30.4829 63.8721H29.6133V50.2096H32.5484V57.9625L40.2122 50.1554H41.1362V63.8721H38.2011V56.0649L30.4829 63.8721Z" fill="white"/>
<path d="M42.4414 38.0106C42.4414 34.1071 39.2889 30.9625 35.3755 30.9625C31.4621 30.9625 28.3096 34.1071 28.3096 38.0106C28.3096 41.9142 31.4621 45.0587 35.3755 45.0587V49.6671L40.9195 42.4021C41.8435 41.2094 42.4414 39.6913 42.4414 38.0106Z" fill="white"/>
<path d="M35.3753 42.4024C37.8068 42.4024 39.7779 40.4362 39.7779 38.0109C39.7779 35.5855 37.8068 33.6194 35.3753 33.6194C32.9438 33.6194 30.9727 35.5855 30.9727 38.0109C30.9727 40.4362 32.9438 42.4024 35.3753 42.4024Z" fill="#9FD18B"/>
<path d="M69.6714 30.9625C73.5848 30.9625 76.7373 34.1071 76.7373 38.0106C76.7373 41.9142 73.5848 45.0587 69.6714 45.0587C65.758 45.0587 62.6055 41.9142 62.6055 38.0106C62.6055 34.1071 65.758 30.9625 69.6714 30.9625ZM65.2688 38.0106C65.2688 40.3961 67.2255 42.4021 69.6714 42.4021C72.0629 42.4021 74.074 40.4503 74.074 38.0106C74.074 35.6251 72.1173 33.6191 69.6714 33.6191C67.2798 33.6733 65.2688 35.6251 65.2688 38.0106Z" fill="white"/>
</svg>
