<svg width="97" height="64" viewBox="0 0 97 64" fill="none" xmlns="http://www.w3.org/2000/svg">
<path d="M39.9512 40.5685V23.9424C42.3323 23.9424 44.7135 23.9424 47.0947 23.9424C50.9971 23.9424 53.0476 26.8453 53.0476 30.0122C53.0476 33.1131 50.931 35.8841 47.0947 35.8841H43.5229V40.5685H39.9512ZM47.0947 32.7832C48.616 32.7832 49.6081 31.4637 49.6081 29.8803C49.6081 28.3628 48.6821 27.0433 47.0947 27.0433C45.9041 27.0433 44.7135 27.0433 43.4568 27.0433V32.7832H47.0947Z" fill="#32882E"/>
<path d="M4.23581 27.1752C4.23581 31.6616 4.23581 36.0821 4.23581 40.5685C3.04523 40.5685 1.85464 40.5685 0.664062 40.5685C0.664062 35.0264 0.664062 29.4844 0.664062 23.9424C3.97123 23.9424 8.7997 23.9424 12.173 23.9424C12.173 25.13 12.173 25.9876 12.173 27.1752H4.23581Z" fill="#32882E"/>
<path d="M80.9627 37.5335C82.4179 37.5335 82.6825 36.8078 82.8809 35.2244L84.2038 23.9424C87.5771 23.9424 91.678 23.9424 95.0513 23.9424V37.5335H96.8371V42.8776H93.6623V40.5025C90.0905 40.5025 87.3787 40.5025 83.8069 40.5025V42.8776H80.4336V37.5335H80.9627ZM86.3865 35.3563C86.3204 36.0821 85.9896 37.1377 85.2621 37.5995H91.5457V27.0433H87.3125L86.3865 35.3563Z" fill="#32882E"/>
<path d="M31.8831 0.455078H33.1398V17.1471H29.568V8.17432L25.401 13.3865H24.938L20.771 8.17432V17.1471H17.1992V0.521059H18.5221L25.2026 8.43824L31.8831 0.455078Z" fill="#32882E"/>
<path d="M19.2497 63.7267H18.1914V47.1006H21.7631V56.5353L31.0894 47.0347H32.2138V63.7267H28.6421V54.2261L19.2497 63.7267Z" fill="#32882E"/>
<path d="M33.8018 32.2552C33.8018 27.5049 29.9655 23.6782 25.2031 23.6782C20.4408 23.6782 16.6045 27.5049 16.6045 32.2552C16.6045 37.0055 20.4408 40.8321 25.2031 40.8321V46.4401L31.9498 37.5993C33.0742 36.1478 33.8018 34.3004 33.8018 32.2552Z" fill="#32882E"/>
<path d="M25.2033 37.5998C28.1622 37.5998 30.5609 35.2072 30.5609 32.2557C30.5609 29.3042 28.1622 26.9116 25.2033 26.9116C22.2444 26.9116 19.8457 29.3042 19.8457 32.2557C19.8457 35.2072 22.2444 37.5998 25.2033 37.5998Z" fill="#9FD18B"/>
<path d="M66.9395 23.6782C71.7018 23.6782 75.5381 27.5049 75.5381 32.2552C75.5381 37.0055 71.7018 40.8321 66.9395 40.8321C62.1771 40.8321 58.3408 37.0055 58.3408 32.2552C58.3408 27.5049 62.1771 23.6782 66.9395 23.6782ZM61.5818 32.2552C61.5818 35.1581 63.963 37.5993 66.9395 37.5993C69.8498 37.5993 72.2971 35.2241 72.2971 32.2552C72.2971 29.3522 69.9159 26.9111 66.9395 26.9111C64.0292 26.9771 61.5818 29.3522 61.5818 32.2552Z" fill="#32882E"/>
</svg>
