<svg width="30" height="29" viewBox="0 0 30 29" fill="none" xmlns="http://www.w3.org/2000/svg">
<path d="M14.5 1.73371C7.40763 1.73371 1.73371 7.40763 1.73371 14.5C1.73371 21.5924 7.40763 27.2663 14.5 27.2663C21.5924 27.2663 27.2663 21.5924 27.2663 14.5C27.2663 7.40763 21.5924 1.73371 14.5 1.73371ZM14.5 29C6.46198 29 0 22.5381 0 14.5C0 6.46198 6.46198 0 14.5 0C22.5381 0 29 6.46198 29 14.5C29.1576 22.5381 22.5381 29 14.5 29Z" fill="#C2DBB8"/>
<path d="M14.4996 12.4508C13.3963 12.4508 12.4507 11.5052 12.4507 10.4019C12.4507 9.29868 13.3963 8.353 14.4996 8.353C15.6029 8.353 16.5485 9.29868 16.5485 10.4019C16.5485 11.5052 15.6029 12.4508 14.4996 12.4508ZM14.4996 6.14648C12.1355 6.14648 10.2441 8.03781 10.2441 10.4019C10.2441 12.7661 12.1355 14.6573 14.4996 14.6573C16.8637 14.6573 18.755 12.7661 18.755 10.4019C18.755 8.03781 16.8637 6.14648 14.4996 6.14648Z" fill="#C2DBB8"/>
<path d="M19.2274 16.2336C18.7546 16.7064 18.1241 17.1793 17.3361 17.4945C16.7056 17.8097 15.9176 17.8097 15.2872 17.9673C15.4448 18.1249 15.4448 18.1249 15.4448 18.2825C16.3904 19.2282 17.3361 20.1738 18.4393 21.2771C18.7546 21.5923 18.9122 22.0651 18.597 22.3804C18.4393 22.8532 17.9665 23.0108 17.4937 23.0108C17.1785 23.0108 17.0209 22.8532 16.8632 22.6955C16.0752 21.9075 15.4448 21.2771 14.6567 20.489C14.4991 20.3314 14.3415 20.3314 14.1839 20.489C13.3958 21.2771 12.7654 22.0651 11.9774 22.6955C11.6622 23.0108 11.1893 23.0108 10.8741 22.8532C10.4013 22.6956 10.2437 22.2227 10.2437 21.7499C10.2437 21.4347 10.4013 21.2771 10.5589 21.1195C11.5046 20.1738 12.4502 19.2282 13.3958 18.2825L13.5535 18.1249C12.2926 17.9673 11.0317 17.6521 10.086 16.864C9.92844 16.7064 9.77086 16.7064 9.77086 16.5488C9.29803 16.076 9.29802 15.6032 9.61324 15.1303C9.92846 14.6575 10.4013 14.6575 10.8741 14.8151C11.0317 14.8151 11.0317 14.9727 11.1893 14.9727C13.0806 16.2336 15.6024 16.2336 17.4937 14.9727C17.6513 14.8151 17.8089 14.6575 18.1241 14.6575C18.5969 14.4999 19.0698 14.6575 19.2274 15.1303C19.5426 15.4456 19.5426 15.9184 19.2274 16.2336Z" fill="#C2DBB8"/>
</svg>
