<svg width="29" height="29" viewBox="0 0 29 29" fill="none" xmlns="http://www.w3.org/2000/svg">
<path d="M14.5 1.73371C7.40763 1.73371 1.73371 7.40763 1.73371 14.5C1.73371 21.5924 7.40763 27.2663 14.5 27.2663C21.5924 27.2663 27.2663 21.5924 27.2663 14.5C27.2663 7.40763 21.4348 1.73371 14.5 1.73371ZM14.5 29C6.46198 29 0 22.5381 0 14.5C0 6.46198 6.46198 0 14.5 0C22.5381 0 29 6.46198 29 14.5C29 22.5381 22.5381 29 14.5 29Z" fill="#C2DBB8"/>
<path d="M23.1692 10.8749C23.0116 10.7173 22.066 10.7173 21.2779 10.7173C20.4899 10.7173 19.5442 10.7173 19.3866 10.8749C19.229 10.8749 18.7562 11.9782 18.2834 12.9239C17.6529 14.0271 16.8649 15.1304 16.3921 15.1304C15.7616 15.1304 15.9192 13.2391 15.9192 11.8206C15.9192 10.8749 15.7616 10.5597 15.604 10.5597C15.2888 10.4021 14.3431 10.0869 14.3431 10.0869C14.3431 10.0869 11.6638 9.92928 11.3486 11.0325C11.8214 11.0325 12.7671 10.875 12.4519 14.5C12.4519 14.6576 11.979 16.076 10.7182 14.1847C10.4029 13.7119 9.14205 10.7173 8.82683 10.7173C7.40836 10.7173 6.14748 10.5597 5.51704 10.8749C5.04421 11.1901 6.14748 13.2391 7.88117 15.9184C9.29965 18.1249 10.8757 19.8586 13.5551 20.3315C14.0279 20.3315 15.2888 20.4891 15.7616 20.1738C16.0768 20.0162 15.7616 18.1249 16.7073 17.9673C17.1801 17.8097 18.7562 20.0162 19.3866 20.1738C19.7019 20.3314 20.6475 20.3315 21.4355 20.3315C22.3812 20.3315 23.3269 20.3315 23.4845 19.8586C23.6421 18.4402 20.8051 16.7065 20.6475 15.9184C20.6475 15.288 21.7508 14.1847 22.3812 13.3967C22.854 12.451 23.6421 11.1901 23.1692 10.8749Z" fill="#C2DBB8"/>
</svg>
