<svg width="29" height="29" viewBox="0 0 29 29" fill="none" xmlns="http://www.w3.org/2000/svg">
<path d="M14.5 1.73371C7.40758 1.73371 1.73371 7.40763 1.73371 14.5C1.73371 21.5924 7.40758 27.2663 14.5 27.2663C21.5924 27.2663 27.2663 21.5924 27.2663 14.5C27.2663 7.40763 21.4348 1.73371 14.5 1.73371ZM14.5 29C6.46193 29 0 22.5381 0 14.5C0 6.46198 6.46193 0 14.5 0C22.538 0 29 6.46198 29 14.5C29 22.5381 22.3804 29 14.5 29Z" fill="#C2DBB8"/>
<path d="M12.7662 17.0216V11.9781L17.0216 14.4999L12.7662 17.0216ZM20.6466 10.7172C20.3314 10.0868 19.8586 9.9292 19.0705 9.9292C18.2825 9.9292 16.2335 9.9292 14.4998 9.9292C12.7661 9.9292 10.7172 9.9292 9.92917 9.9292C9.14113 9.9292 8.6683 10.0868 8.35308 10.7172C8.03786 11.3477 7.72266 12.451 7.72266 14.4999C7.72266 16.3912 7.88026 17.4944 8.35308 18.2825C8.6683 18.9129 9.14113 19.0705 9.92917 19.0705C10.7172 19.0705 12.7661 19.0705 14.4998 19.0705C16.2335 19.0705 18.2825 19.0705 19.0705 19.0705C19.8586 19.0705 20.3314 18.9129 20.6466 18.2825C20.9618 17.6521 21.277 16.5488 21.277 14.4999C21.1194 12.6086 20.9618 11.5053 20.6466 10.7172Z" fill="#C2DBB8"/>
</svg>
